REM MD5 a6e4b906e09337eff133d7a802d73c79
FILE "Andretti Racing (Germany).bin" BINARY
  TRACK 01 MODE2/2352
    INDEX 01 00:00:00
  TRACK 02 AUDIO
    INDEX 00 54:20:10
    INDEX 01 54:22:10
  TRACK 03 AUDIO
    INDEX 00 56:33:16
    INDEX 01 56:35:16
  TRACK 04 AUDIO
    INDEX 00 59:03:40
    INDEX 01 59:05:40
  TRACK 05 AUDIO
    INDEX 00 61:41:12
    INDEX 01 61:43:12
  TRACK 06 AUDIO
    INDEX 00 64:05:52
    INDEX 01 64:07:52
REM LEADOUT 67:01:64
